PathFileType	4	(X/Y/Z)	Patient4_TMGait_0pt6_01_left_26.trc.trc
DataRate	CameraRate	NumFrames	NumMarkers	Units	OrigDataRate	OrigDataStartFrame	OrigNumFrames
81.395348837209	81.395348837209	4	33	mm	81.395348837209	71	       141
Frame#	Time	Sacral			L.Shoulder			Chest			R.Shoulder			Neck			R.ASIS			L.ASIS			R.Thigh.Superior			R.Thigh.Lateral			R.Thigh.Inferior			R.Patella			L.Thigh.Superior			L.Thigh.Lateral			L.Thigh.Inferior			L.Patella			L.Shank.Superior			L.Shank.Lateral			L.Shank.Inferior			R.Shank.Superior			R.Shank.Lateral			R.Shank.Inferior			R.Heel			R.Midfoot.Superior			R.Midfoot.Lateral			R.Toe			L.Heel			L.Midfoot.Lateral			L.Midfoot.Superior			L.Toe			L.Elbow			L.Wrist			R.Elbow			R.Wrist			
		X1	Y1	Z1	X2	Y2	Z2	X3	Y3	Z3	X4	Y4	Z4	X5	Y5	Z5	X6	Y6	Z6	X7	Y7	Z7	X8	Y8	Z8	X9	Y9	Z9	X10	Y10	Z10	X11	Y11	Z11	X12	Y12	Z12	X13	Y13	Z13	X14	Y14	Z14	X15	Y15	Z15	X16	Y16	Z16	X17	Y17	Z17	X18	Y18	Z18	X19	Y19	Z19	X20	Y20	Z20	X21	Y21	Z21	X22	Y22	Z22	X23	Y23	Z23	X24	Y24	Z24	X25	Y25	Z25	X26	Y26	Z26	X27	Y27	Z27	X28	Y28	Z28	X29	Y29	Z29	X30	Y30	Z30	X31	Y31	Z31	X32	Y32	Z32	X33	Y33	Z33	

71	32.490000000000	738.024904884246	996.036048400686	442.191554215586	912.905132830548	1429.131378953640	270.290035959282	1004.928216203955	1362.317977269846	437.764780304712	907.964179703415	1433.070530670821	604.550400653044	882.755869108321	1488.584298135275	422.994869496461	960.254099263401	936.376118537613	569.846014641385	958.475610603797	958.960697903116	293.995483384524	1033.428020711705	759.530370370678	542.097022331802	986.089717768836	636.841108154661	613.109203670828	1076.086656640666	599.831962862502	534.106730401113	1108.250969539713	517.241197647545	548.151885785355	956.412411546880	730.034749879325	321.797940512823	835.979734358348	636.904238255583	263.033033191061	894.574550055737	543.136135651051	327.008040776636	878.928483120913	476.549985396254	336.812030238468	845.726994578807	412.026275234079	331.296223307541	742.493631258386	305.788572993974	286.523336430124	786.873661906213	192.209549770415	360.543952344086	1093.956476698851	429.843893882869	556.362525494533	1042.087627433698	314.313722678539	616.503730972061	1113.212000482946	230.541727738228	564.353007341594	1023.096691076611	45.576105809085	531.727998625343	1186.580241559194	116.015526179108	574.415819364608	1106.155081465296	42.557437161984	606.596000644718	1309.606306403381	76.464000376271	601.395541803523	650.614809218064	40.503816965104	414.270271031353	722.149041744460	35.092565427808	331.937702280063	806.657257884722	95.790733265933	354.558960127728	933.744634567958	42.548675585371	324.636716822725	992.288271921796	1096.950824201986	130.327325727879	1243.244339604208	1029.680281765396	132.247277884919	761.672547709701	1123.672377627910	714.929824783383	722.219478074812	866.608572319992	733.198304578879	
72	32.502285714286	739.713877630876	994.530933337961	444.379428641070	913.181915940723	1427.752296957181	271.962508445805	1005.448207931504	1361.449498109379	439.464713462939	908.263816997691	1431.984562473883	606.266648739030	882.951742272974	1487.295952866869	424.645635185437	961.953296835945	934.766705230259	571.550274075537	959.498129602007	957.788588072539	295.884160855808	1034.945618490006	757.390718102010	543.705955767694	985.801404914955	634.313144102400	613.082071231493	1076.164940749476	597.603129354246	534.611421965323	1107.135106315058	514.693764370807	547.536493442432	956.580376880453	728.778391997540	323.063257089358	835.410375674888	636.444650807563	264.203000807966	893.263861894569	542.072512724138	328.118332186884	877.164687291672	475.147503973137	337.783464115773	842.894390967851	411.038605358275	332.091081737158	738.214477423764	306.289790166603	287.056012581032	780.979800064104	191.881159439868	360.648183423266	1092.439998436488	426.769864421390	555.467762148062	1039.514237260763	311.497399287106	614.968674600694	1109.791498238339	227.398567911018	562.533710256930	1017.781276854348	44.394446494819	529.558846268732	1181.965845553332	112.427365741936	571.942914002809	1100.545513960926	40.904592683614	604.693996742349	1304.474851470429	71.533427298254	599.492896141470	643.201896088821	41.061423486708	413.975164608767	714.827030110237	35.219203840483	331.830525770452	799.439866964246	95.848674993267	354.435210852169	926.440387512926	42.183689924473	324.627067567164	991.990713910190	1095.208533442238	132.228649252184	1242.934419753225	1027.821484493239	134.048446895154	762.547349960461	1122.359145776210	716.522359716549	723.774572493690	865.123946478575	734.684491843882	
73	32.514571428571	741.424442461357	993.197499847589	446.776392010332	913.386289005269	1426.500906245027	273.813110549883	1006.042095137862	1360.719334933006	441.281255995425	908.699888814216	1430.953065513534	608.183871051481	883.209403816835	1486.139085615915	426.481584391325	963.831835342451	933.248908026269	573.304009632581	960.588465813535	956.721037806151	297.831224208549	1036.832092206806	755.515846517609	545.163016893797	985.921048781759	632.101971836888	612.883703142742	1076.576910420837	595.715661778824	534.859713504915	1106.316877545223	512.243086764968	546.684635123922	957.093854739860	727.652776508824	324.319366472797	835.229449200434	635.995599948363	265.531467591086	892.525702815164	541.041540713852	329.282435977831	876.038396115187	473.680447272398	338.811152343836	840.567628457179	410.001696289057	332.967625869184	734.285697662854	306.922692039553	287.697265608622	775.276391313197	191.611890402099	360.773316959031	1090.913253462700	423.714434393833	554.438700210018	1036.605397292871	308.938651240091	613.515760385358	1105.501075896472	224.193474527403	560.654335170926	1010.735302220458	43.466048766028	527.662350435625	1175.825666294243	108.830593155088	569.484775600825	1093.271695680980	39.495686907929	603.027022536845	1297.795596068296	66.378598935601	597.592025058137	635.807307072801	41.843979634438	413.657467699013	707.535334725486	35.429184148300	331.717268167179	792.315505998507	95.957073676135	354.258511550572	919.176828656956	41.770857939375	324.604041461779	991.289350468620	1093.402422019323	134.353486334339	1241.996390984448	1024.832288335835	135.953663996464	764.362353547916	1120.584259737484	718.266769336115	726.867877488554	863.069302402875	736.108972703992	
74	32.526857142857	743.136604466905	992.106242201614	449.345352728499	913.535526446736	1425.446872755016	275.839956675541	1006.722751757531	1360.176000262511	443.207723117153	909.308014584653	1430.043290816913	610.296987173848	883.555270073962	1485.183627052487	428.498093540751	965.854540597079	931.900067549378	575.103919019145	961.739585233985	955.823042054395	299.822789716399	1038.978440863388	753.945680887960	546.447066400452	986.391754730453	630.299045915365	612.611148487536	1077.215661969813	594.200237960713	534.899428791847	1105.715076294790	509.980570815294	545.705752245070	957.929900951305	726.717427927687	325.563466527245	835.439675748795	635.587942902387	267.012527827519	892.406489313398	540.088720678436	330.480300607073	875.608409529942	472.179192892238	339.840186422058	838.784510820180	408.951443505800	333.891259066294	730.728692611946	307.744019379766	288.448459541710	769.796168240336	191.452605086468	360.902429658907	1089.404639260211	420.832111626047	553.398050724920	1033.571615217967	306.718576211067	612.288487146328	1100.678500029766	221.110277922850	558.854011765993	1002.596126325186	42.759259839929	526.136233548209	1168.673597971424	105.488558527984	567.198124242479	1084.980811073358	38.373560712790	601.677568858024	1290.145384819228	61.450736106448	595.815813789526	628.453475465942	42.935885686198	413.326399348893	700.283509311632	35.761194380666	331.601632452298	785.326010244544	96.121167932620	354.009927484140	911.958881052204	41.320888449146	324.566950004784	990.183624281432	1091.597905578763	136.720128887698	1240.389475923185	1020.727726643509	137.952247171572	767.111515344223	1118.454057227644	720.172509444769	731.500748198890	860.556453966401	737.479685274250	
